<svg width="108" height="108" viewBox="0 0 108 108" fill="none" xmlns="http://www.w3.org/2000/svg">
<rect x="2" y="2" width="104" height="104" fill="white" stroke="black" stroke-width="4"/>
<rect x="8" y="16" width="47.5456" height="76.073" fill="#FFFF00"/>
<path d="M16.7817 79.5923V24.059H23.6282V45.7398H25.0736L23.6282 47.3373C23.6282 44.0408 24.6172 41.5051 26.5951 39.73C28.573 37.9043 31.3116 36.9914 34.811 36.9914C39.0204 36.9914 42.3676 38.2846 44.8526 40.8711C47.3377 43.4576 48.5802 46.9823 48.5802 51.4453V79.5923H41.7336V52.206C41.7336 49.2138 40.9222 46.9062 39.2993 45.2834C37.7271 43.6097 35.5717 42.7729 32.8331 42.7729C29.993 42.7729 27.7362 43.6605 26.0626 45.4355C24.4397 47.2105 23.6282 49.7209 23.6282 52.9667V79.5923H16.7817Z" fill="black"/>
<path d="M61.8633 79.5923V73.3543H76.6975V43.9901H63.7651V37.7521H83.5441V73.3543H97.6176V79.5923H61.8633ZM79.3601 30.2209C77.6865 30.2209 76.3679 29.7898 75.4043 28.9277C74.4407 28.0655 73.9589 26.899 73.9589 25.4283C73.9589 23.9068 74.4407 22.715 75.4043 21.8529C76.3679 20.94 77.6865 20.4836 79.3601 20.4836C81.0337 20.4836 82.3523 20.94 83.3159 21.8529C84.2794 22.715 84.7612 23.9068 84.7612 25.4283C84.7612 26.899 84.2794 28.0655 83.3159 28.9277C82.3523 29.7898 81.0337 30.2209 79.3601 30.2209Z" fill="black"/>
<rect x="59.7059" y="87.3185" width="40.4138" height="4.75456" fill="black"/>
</svg>
